# xmcd CD database file
#
# Track frame offsets:
#	150
#	9511
#	10093
#	16049
#	35859
#	37488
#	46320
#	51358
#	54792
#	64864
#	79551
#	82705
#	93087
#	117660
#	119152
#	141714
#	144708
#	149804
#	150840
#	155154
#	165791
#
# Disc length: 2519 seconds
#
# Revision: 0
# Processed by: cddbd v1.5.2PL0 Copyright (c) Steve Scherf et al.
# Submitted via: CDex 1.51
#
DISCID=1e09d515
DTITLE=Verneri Pohjola - Joonas Riippa - Michelin Star
DYEAR=2007
DGENRE=Jazz
TTITLE0=Hells Kitchen
TTITLE1=Preparation pt. I
TTITLE2=Appetizer
TTITLE3=Model Aeroplanes
TTITLE4=Preparation pt. II
TTITLE5=ESB
TTITLE6=Main Course
TTITLE7=Xennus pt. I
TTITLE8=Havuja Perkele
TTITLE9=Ploppo Goes Underwater
TTITLE10=Preparation pt. III
TTITLE11=A Box In A Vitrine
TTITLE12=The First Good Meal In Months
TTITLE13=Preparation pt. IV
TTITLE14=Maltodextrin High
TTITLE15=Xennus pt. II
TTITLE16=Dessert
TTITLE17=Preparation pt. V
TTITLE18=When Death Comes
TTITLE19=Industrial Fry
TTITLE20=Full English Breakfast
EXTD=YEAR: 2007
EXTT0=
EXTT1=
EXTT2=
EXTT3=
EXTT4=
EXTT5=
EXTT6=
EXTT7=
EXTT8=
EXTT9=
EXTT10=
EXTT11=
EXTT12=
EXTT13=
EXTT14=
EXTT15=
EXTT16=
EXTT17=
EXTT18=
EXTT19=
EXTT20=
PLAYORDER=
